<?xml version="1.0" encoding="utf-8"?>
<!-- Generator: Adobe Illustrator 27.9.0, SVG Export Plug-In . SVG Version: 6.00 Build 0)  -->
<svg version="1.1" id="Layer_1" xmlns="http://www.w3.org/2000/svg" xmlns:xlink="http://www.w3.org/1999/xlink" x="0px" y="0px"
	 viewBox="0 0 48 60" style="enable-background:new 0 0 48 60;" xml:space="preserve">
<style type="text/css">
	.st0{fill:#EE2D2B;}
</style>
<path class="st0" d="M44.4,16.1v-3.6H42V9.7H28.4v2.8h-2.8v3.6h-3.2v-3.6h-3.2V9.7H6v2.8H3.2v3.6H0v12.8h3.2v6.4H6v3.6h3.2v3.2h3.6
	v2.8H16v3.2h3.2v3.2h3.2v3.2h3.2v-3.2h2.8v-3.2H32v-3.2h3.6v-2.8h2.8v-3.2H42v-3.6h2.5v-6.4H48V16.1H44.4z M16,16.1H9.6v12.4H6V16.1
	h3.6v-3.6H16V16.1z"/>
</svg>
